<svg width="26" height="26" viewBox="0 0 26 26" fill="none" xmlns="http://www.w3.org/2000/svg">
<path d="M21 22V20C21 18.9392 20.5786 17.9217 19.8284 17.1716C19.0783 16.4215 18.0609 16 17 16H9C7.93913 16 6.92172 16.4215 6.17157 17.1716C5.42143 17.9217 5 18.9392 5 20V22" stroke="black" stroke-width="2" stroke-linecap="round" stroke-linejoin="round"/>
<path d="M13 12C15.2091 12 17 10.2092 17 8.00003C17 5.79089 15.2091 4.00003 13 4.00003C10.7909 4.00003 9 5.79089 9 8.00003C9 10.2092 10.7909 12 13 12Z" stroke="black" stroke-width="2" stroke-linecap="round" stroke-linejoin="round"/>
<circle cx="13" cy="13" r="12" stroke="black" stroke-width="2"/>
</svg>
