<svg width="36" height="35" viewBox="0 0 36 35" fill="none" xmlns="http://www.w3.org/2000/svg">
<path d="M25.695 30.1875L31.95 24.15L30.06 22.3125L25.695 26.4688L23.94 24.7625L22.05 26.6438L25.695 30.1875ZM5.4 10.5H27V7H5.4V10.5ZM27 35C24.51 35 22.3872 34.1466 20.6316 32.4398C18.876 30.7329 17.9988 28.6697 18 26.25C18 23.8292 18.8778 21.7653 20.6334 20.0585C22.389 18.3517 24.5112 17.4988 27 17.5C29.49 17.5 31.6128 18.3534 33.3684 20.0603C35.124 21.7671 36.0012 23.8303 36 26.25C36 28.6708 35.1222 30.7347 33.3666 32.4415C31.611 34.1483 29.4888 35.0012 27 35ZM0 33.25V3.5C0 2.5375 0.3528 1.71325 1.0584 1.02725C1.764 0.341253 2.6112 -0.0011637 3.6 2.97114e-06H28.8C29.79 2.97114e-06 30.6378 0.343003 31.3434 1.029C32.049 1.715 32.4012 2.53867 32.4 3.5V15.1813C31.83 14.9188 31.245 14.7 30.645 14.525C30.045 14.35 29.43 14.2188 28.8 14.1313V3.5H3.6V28.0875H14.535C14.685 28.9917 14.9178 29.8521 15.2334 30.6688C15.549 31.4854 15.9612 32.2583 16.47 32.9875L16.2 33.25L13.5 30.625L10.8 33.25L8.1 30.625L5.4 33.25L2.7 30.625L0 33.25ZM5.4 24.5H14.535C14.625 23.8875 14.76 23.2896 14.94 22.7063C15.12 22.1229 15.345 21.5542 15.615 21H5.4V24.5ZM5.4 17.5H18.18C19.32 16.4208 20.6478 15.5674 22.1634 14.9398C23.679 14.3121 25.2912 13.9988 27 14H5.4V17.5Z" fill="#F55951"/>
</svg>
