<svg width="41" height="35" viewBox="0 0 41 35" fill="none" xmlns="http://www.w3.org/2000/svg">
<path d="M12.3772 6.08475V2.28814C12.3772 1.78467 12.5741 1.30183 12.9245 0.945831C13.275 0.58983 13.7503 0.389831 14.2459 0.389831C14.7415 0.389831 15.2168 0.58983 15.5672 0.945831C15.9176 1.30183 16.1145 1.78467 16.1145 2.28814V6.08475C16.1145 6.58821 15.9176 7.07105 15.5672 7.42705C15.2168 7.78305 14.7415 7.98305 14.2459 7.98305C13.7503 7.98305 13.275 7.78305 12.9245 7.42705C12.5741 7.07105 12.3772 6.58821 12.3772 6.08475ZM20.4747 7.98305C20.9703 7.98305 21.4456 7.78305 21.796 7.42705C22.1465 7.07105 22.3433 6.58821 22.3433 6.08475V2.28814C22.3433 1.78467 22.1465 1.30183 21.796 0.945831C21.4456 0.58983 20.9703 0.389831 20.4747 0.389831C19.9791 0.389831 19.5038 0.58983 19.1534 0.945831C18.8029 1.30183 18.606 1.78467 18.606 2.28814V6.08475C18.606 6.58821 18.8029 7.07105 19.1534 7.42705C19.5038 7.78305 19.9791 7.98305 20.4747 7.98305ZM26.7035 7.98305C27.1991 7.98305 27.6744 7.78305 28.0248 7.42705C28.3753 7.07105 28.5721 6.58821 28.5721 6.08475V2.28814C28.5721 1.78467 28.3753 1.30183 28.0248 0.945831C27.6744 0.58983 27.1991 0.389831 26.7035 0.389831C26.2079 0.389831 25.7326 0.58983 25.3822 0.945831C25.0317 1.30183 24.8349 1.78467 24.8349 2.28814V6.08475C24.8349 6.58821 25.0317 7.07105 25.3822 7.42705C25.7326 7.78305 26.2079 7.98305 26.7035 7.98305ZM39.6594 16.4621L35.4238 19.6893V28.8644C35.4238 30.3748 34.8332 31.8233 33.7819 32.8913C32.7306 33.9593 31.3047 34.5593 29.8179 34.5593H11.1315C9.64468 34.5593 8.21879 33.9593 7.16748 32.8913C6.11616 31.8233 5.52554 30.3748 5.52554 28.8644V19.6893L1.28995 16.4621C0.893469 16.1601 0.631357 15.7104 0.561269 15.212C0.491181 14.7136 0.61886 14.2073 0.916217 13.8045C1.21357 13.4018 1.65625 13.1355 2.14687 13.0643C2.63748 12.9931 3.13584 13.1228 3.53232 13.4249L5.52554 14.9435V13.678C5.52554 12.8389 5.85366 12.0341 6.43773 11.4408C7.02179 10.8475 7.81395 10.5141 8.63994 10.5141H32.3094C33.1354 10.5141 33.9276 10.8475 34.5116 11.4408C35.0957 12.0341 35.4238 12.8389 35.4238 13.678V14.9435L37.417 13.4249C37.8135 13.1228 38.3119 12.9931 38.8025 13.0643C39.2931 13.1355 39.7358 13.4018 40.0331 13.8045C40.3305 14.2073 40.4582 14.7136 40.3881 15.212C40.318 15.7104 40.0559 16.1601 39.6594 16.4621ZM31.6865 14.3107H9.26282V28.8644C9.26282 29.3679 9.4597 29.8507 9.81014 30.2067C10.1606 30.5627 10.6359 30.7627 11.1315 30.7627H29.8179C30.3135 30.7627 30.7888 30.5627 31.1392 30.2067C31.4897 29.8507 31.6865 29.3679 31.6865 28.8644V14.3107Z" fill="#F55951"/>
</svg>
